<svg width="100" height="100" viewBox="0 0 100 100" fill="none" xmlns="http://www.w3.org/2000/svg">
<path d="M98.3861 16.1299H59.6768C58.7849 16.1299 58.0639 16.8508 58.0639 17.7428V54.8392H51.6124V14.517C51.6124 13.7864 51.1205 13.146 50.4156 12.9589L2.02901 0.0558469C1.54515 -0.0764099 1.02902 0.0300407 0.630639 0.334876C0.233869 0.639712 0 1.11229 0 1.6139V98.3871C0 99.279 0.720961 100 1.61289 100H98.3861C99.278 100 99.999 99.279 99.999 98.3871V17.7428C99.999 16.8508 99.278 16.1299 98.3861 16.1299ZM74.1928 54.8392H67.7413V51.6134H74.1928V54.8392ZM74.1928 58.0649V61.2907H48.3866V64.5165H74.1928V67.7423H48.3866V70.968H74.1928V74.1938H48.3866V77.4196H74.1928V80.6454H48.3866V83.8711H74.1928V96.7742H41.9351V58.0649H74.1928ZM3.22577 19.3557H30.6449C31.5352 19.3557 32.2577 20.0782 32.2577 20.9685C32.2577 21.8589 31.5352 22.5814 30.6449 22.5814H3.22577V19.3557ZM3.22577 32.2587H30.6449C31.5352 32.2587 32.2577 32.9813 32.2577 33.8716C32.2577 34.7619 31.5352 35.4845 30.6449 35.4845H3.22577V32.2587ZM3.22577 45.1618H30.6449C31.5352 45.1618 32.2577 45.8844 32.2577 46.7747C32.2577 47.665 31.5352 48.3876 30.6449 48.3876H3.22577V45.1618ZM3.22577 58.0649H30.6449C31.5352 58.0649 32.2577 58.7875 32.2577 59.6778C32.2577 60.5681 31.5352 61.2907 30.6449 61.2907H3.22577V58.0649ZM3.22577 70.968H30.6449C31.5352 70.968 32.2577 71.6906 32.2577 72.5809C32.2577 73.4712 31.5352 74.1938 30.6449 74.1938H3.22577V70.968ZM3.22577 77.4196H30.6449C33.3126 77.4196 35.4835 75.2486 35.4835 72.5809C35.4835 69.9132 33.3126 67.7423 30.6449 67.7423H3.22577V64.5165H30.6449C33.3126 64.5165 35.4835 62.3455 35.4835 59.6778C35.4835 57.0101 33.3126 54.8392 30.6449 54.8392H3.22577V51.6134H30.6449C33.3126 51.6134 35.4835 49.4424 35.4835 46.7747C35.4835 44.107 33.3126 41.9361 30.6449 41.9361H3.22577V38.7103H30.6449C33.3126 38.7103 35.4835 36.5393 35.4835 33.8716C35.4835 31.2039 33.3126 29.033 30.6449 29.033H3.22577V25.8072H30.6449C33.3126 25.8072 35.4835 23.6363 35.4835 20.9685C35.4835 18.3008 33.3126 16.1299 30.6449 16.1299H3.22577V3.71387L48.3866 15.7573V54.8392H40.3222C39.4302 54.8392 38.7093 55.5601 38.7093 56.4521V96.7742H3.22577V77.4196ZM96.7732 96.7742H77.4186V56.4521V50.0005C77.4186 49.1086 76.6976 48.3876 75.8057 48.3876H66.1284C65.2364 48.3876 64.5155 49.1086 64.5155 50.0005V54.8392H61.2897V19.3557H96.7732V96.7742Z" fill="white"/>
<path d="M66.1284 32.2587H75.8057C76.6976 32.2587 77.4186 31.5378 77.4186 30.6459V24.1943C77.4186 23.3024 76.6976 22.5814 75.8057 22.5814H66.1284C65.2364 22.5814 64.5155 23.3024 64.5155 24.1943V30.6459C64.5155 31.5378 65.2364 32.2587 66.1284 32.2587ZM67.7412 25.8072H74.1928V29.033H67.7412V25.8072Z" fill="white"/>
<path d="M82.2572 32.2587H91.9346C92.8265 32.2587 93.5474 31.5378 93.5474 30.6459V24.1943C93.5474 23.3024 92.8265 22.5814 91.9346 22.5814H82.2572C81.3653 22.5814 80.6443 23.3024 80.6443 24.1943V30.6459C80.6443 31.5378 81.3653 32.2587 82.2572 32.2587ZM83.8701 25.8072H90.3217V29.033H83.8701V25.8072Z" fill="white"/>
<path d="M66.1284 45.1618H75.8057C76.6976 45.1618 77.4186 44.4409 77.4186 43.549V37.0974C77.4186 36.2055 76.6976 35.4845 75.8057 35.4845H66.1284C65.2364 35.4845 64.5155 36.2055 64.5155 37.0974V43.549C64.5155 44.4409 65.2364 45.1618 66.1284 45.1618ZM67.7412 38.7103H74.1928V41.9361H67.7412V38.7103Z" fill="white"/>
<path d="M82.2572 45.1618H91.9346C92.8265 45.1618 93.5474 44.4409 93.5474 43.549V37.0974C93.5474 36.2055 92.8265 35.4845 91.9346 35.4845H82.2572C81.3653 35.4845 80.6443 36.2055 80.6443 37.0974V43.549C80.6443 44.4409 81.3653 45.1618 82.2572 45.1618ZM83.8701 38.7103H90.3217V41.9361H83.8701V38.7103Z" fill="white"/>
<path d="M82.2572 58.0649H91.9346C92.8265 58.0649 93.5474 57.344 93.5474 56.4521V50.0005C93.5474 49.1086 92.8265 48.3876 91.9346 48.3876H82.2572C81.3653 48.3876 80.6443 49.1086 80.6443 50.0005V56.4521C80.6443 57.344 81.3653 58.0649 82.2572 58.0649ZM83.8701 51.6134H90.3217V54.8392H83.8701V51.6134Z" fill="white"/>
<path d="M82.2572 70.968H91.9346C92.8265 70.968 93.5474 70.2471 93.5474 69.3551V62.9036C93.5474 62.0117 92.8265 61.2907 91.9346 61.2907H82.2572C81.3653 61.2907 80.6443 62.0117 80.6443 62.9036V69.3551C80.6443 70.2471 81.3653 70.968 82.2572 70.968ZM83.8701 64.5165H90.3217V67.7423H83.8701V64.5165Z" fill="white"/>
<path d="M82.2572 83.8711H91.9346C92.8265 83.8711 93.5474 83.1502 93.5474 82.2583V75.8067C93.5474 74.9148 92.8265 74.1938 91.9346 74.1938H82.2572C81.3653 74.1938 80.6443 74.9148 80.6443 75.8067V82.2583C80.6443 83.1502 81.3653 83.8711 82.2572 83.8711ZM83.8701 77.4196H90.3217V80.6454H83.8701V77.4196Z" fill="white"/>
</svg>
