<svg width="98" height="100" viewBox="0 0 98 100" fill="none" xmlns="http://www.w3.org/2000/svg">
<path d="M34.5167 21.6667V0H31.1833V20H21.1833C20.8114 19.9852 20.4452 20.0953 20.1432 20.3128C19.8411 20.5303 19.6206 20.8426 19.5167 21.2C19.4142 21.5491 19.4287 21.9222 19.5581 22.2622C19.6875 22.6023 19.9247 22.8907 20.2333 23.0833L46.9 39.75C47.1843 39.9269 47.5154 40.014 47.85 40C48.1491 39.9999 48.4427 39.9193 48.7 39.7667L77.0333 23.1C77.3473 22.9137 77.5915 22.6294 77.7282 22.2908C77.865 21.9522 77.8867 21.5781 77.7902 21.2259C77.6936 20.8738 77.4841 20.5631 77.1938 20.3416C76.9035 20.1201 76.5485 20.0001 76.1833 20H66.1833V0H62.85V21.6667C62.85 22.1087 63.0256 22.5326 63.3381 22.8452C63.6507 23.1577 64.0746 23.3333 64.5166 23.3333H70.0667L47.85 36.3833L27 23.3333H32.85C33.292 23.3333 33.7159 23.1577 34.0285 22.8452C34.3411 22.5326 34.5167 22.1087 34.5167 21.6667Z" fill="white"/>
<path d="M89.5167 14.3167L87.3667 12.15L85 14.5167L90 19.5167C90.1549 19.6729 90.3393 19.7969 90.5424 19.8815C90.7455 19.9661 90.9633 20.0097 91.1833 20.0097C91.4034 20.0097 91.6212 19.9661 91.8243 19.8815C92.0274 19.7969 92.2117 19.6729 92.3667 19.5167L97.3667 14.5167L95 12.15L92.85 14.3167V6.66667H89.5167V14.3167Z" fill="white"/>
<path d="M81.1834 47.65L79.0334 45.4833L76.6667 47.85L81.6667 52.85C81.8216 53.0062 82.006 53.1302 82.2091 53.2148C82.4122 53.2994 82.63 53.343 82.85 53.343C83.07 53.343 83.2879 53.2994 83.491 53.2148C83.6941 53.1302 83.8784 53.0062 84.0334 52.85L89.0334 47.85L86.6667 45.4833L84.5167 47.65V45H81.1834V47.65Z" fill="white"/>
<path d="M4.51667 32.65L2.36667 30.4833L0 32.85L5 37.85C5.15494 38.0062 5.33927 38.1302 5.54237 38.2148C5.74547 38.2994 5.96331 38.343 6.18333 38.343C6.40335 38.343 6.6212 38.2994 6.82429 38.2148C7.02739 38.1302 7.21173 38.0062 7.36667 37.85L12.3667 32.85L10 30.4833L7.85 32.65V25H4.51667V32.65Z" fill="white"/>
<path d="M92.8501 0H89.5167V3.33333H92.8501V0Z" fill="white"/>
<path d="M97.8501 48.3333H94.5167V58.3333H97.8501V48.3333Z" fill="white"/>
<path d="M97.8501 41.6667H94.5167V45H97.8501V41.6667Z" fill="white"/>
<path d="M21.1834 36.6667H17.85V45H21.1834V36.6667Z" fill="white"/>
<path d="M21.1834 30H17.85V33.3333H21.1834V30Z" fill="white"/>
<path d="M56.676 0.485073L38.3383 18.8227L40.6953 21.1797L59.033 2.8421L56.676 0.485073Z" fill="white"/>
<path d="M42.85 0C41.8611 0 40.8944 0.293245 40.0722 0.842652C39.2499 1.39206 38.6091 2.17295 38.2306 3.08658C37.8522 4.00021 37.7532 5.00555 37.9461 5.97545C38.139 6.94536 38.6152 7.83627 39.3145 8.53553C40.0138 9.2348 40.9047 9.711 41.8746 9.90393C42.8445 10.0969 43.8498 9.99784 44.7635 9.6194C45.6771 9.24096 46.458 8.6001 47.0074 7.77785C47.5568 6.95561 47.85 5.98891 47.85 5C47.85 3.67392 47.3233 2.40215 46.3856 1.46447C45.4479 0.526784 44.1761 0 42.85 0ZM42.85 6.66667C42.5204 6.66667 42.1982 6.56892 41.9241 6.38578C41.65 6.20265 41.4364 5.94235 41.3102 5.63781C41.1841 5.33326 41.1511 4.99815 41.2154 4.67485C41.2797 4.35155 41.4384 4.05458 41.6715 3.82149C41.9046 3.5884 42.2016 3.42967 42.5249 3.36536C42.8482 3.30105 43.1833 3.33405 43.4878 3.4602C43.7924 3.58635 44.0527 3.79997 44.2358 4.07405C44.419 4.34813 44.5167 4.67036 44.5167 5C44.5167 5.44203 44.3411 5.86595 44.0286 6.17851C43.716 6.49107 43.2921 6.66667 42.85 6.66667Z" fill="white"/>
<path d="M49.5167 16.6667C49.5167 17.6556 49.81 18.6223 50.3594 19.4445C50.9088 20.2668 51.6897 20.9076 52.6033 21.2861C53.5169 21.6645 54.5223 21.7635 55.4922 21.5706C56.4621 21.3777 57.353 20.9015 58.0523 20.2022C58.7515 19.5029 59.2277 18.612 59.4207 17.6421C59.6136 16.6722 59.5146 15.6669 59.1361 14.7533C58.7577 13.8396 58.1168 13.0587 57.2946 12.5093C56.4723 11.9599 55.5056 11.6667 54.5167 11.6667C53.1906 11.6667 51.9189 12.1935 50.9812 13.1311C50.0435 14.0688 49.5167 15.3406 49.5167 16.6667ZM56.1834 16.6667C56.1834 16.9963 56.0856 17.3185 55.9025 17.5926C55.7194 17.8667 55.4591 18.0803 55.1545 18.2065C54.85 18.3326 54.5149 18.3656 54.1916 18.3013C53.8683 18.237 53.5713 18.0783 53.3382 17.8452C53.1051 17.6121 52.9464 17.3151 52.8821 16.9918C52.8178 16.6685 52.8508 16.3334 52.9769 16.0289C53.1031 15.7243 53.3167 15.464 53.5908 15.2809C53.8649 15.0978 54.1871 15 54.5167 15C54.9588 15 55.3827 15.1756 55.6952 15.4882C56.0078 15.8007 56.1834 16.2246 56.1834 16.6667Z" fill="white"/>
<path d="M24.5167 100H71.1834C71.6254 100 72.0493 99.8244 72.3619 99.5119C72.6745 99.1993 72.8501 98.7754 72.8501 98.3334V70H74.5167C74.9588 70 75.3827 69.8244 75.6952 69.5119C76.0078 69.1993 76.1834 68.7754 76.1834 68.3334V55C76.1834 54.558 76.0078 54.1341 75.6952 53.8215C75.3827 53.5089 74.9588 53.3334 74.5167 53.3334H58.5834C59.1893 52.3267 59.5118 51.175 59.5167 50C59.5081 48.6495 59.0894 47.3335 58.3163 46.2262C57.5431 45.1189 56.4519 44.2725 55.1871 43.7991C53.9223 43.3257 52.5435 43.2476 51.2333 43.5752C49.9231 43.9027 48.7433 44.6204 47.8501 45.6333C46.9568 44.6204 45.777 43.9027 44.4668 43.5752C43.1566 43.2476 41.7778 43.3257 40.513 43.7991C39.2482 44.2725 38.157 45.1189 37.3838 46.2262C36.6107 47.3335 36.1921 48.6495 36.1834 50C36.1883 51.175 36.5108 52.3267 37.1167 53.3334H21.1834C20.7414 53.3334 20.3174 53.5089 20.0049 53.8215C19.6923 54.1341 19.5167 54.558 19.5167 55V68.3334C19.5167 68.7754 19.6923 69.1993 20.0049 69.5119C20.3174 69.8244 20.7414 70 21.1834 70H22.8501V98.3334C22.8501 98.7754 23.0257 99.1993 23.3382 99.5119C23.6508 99.8244 24.0747 100 24.5167 100ZM26.1834 70H41.1834V96.6667H26.1834V70ZM44.5167 96.6667V56.6667H51.1834V96.6667H44.5167ZM69.5167 96.6667H54.5167V70H69.5167V96.6667ZM72.8501 66.6667H54.5167V56.6667H72.8501V66.6667ZM52.8501 46.6667C53.7341 46.6667 54.582 47.0179 55.2071 47.643C55.8322 48.2681 56.1834 49.116 56.1834 50C56.1834 50.8841 55.8322 51.7319 55.2071 52.357C54.582 52.9822 53.7341 53.3334 52.8501 53.3334H49.5167V50C49.5167 49.116 49.8679 48.2681 50.493 47.643C51.1182 47.0179 51.966 46.6667 52.8501 46.6667ZM39.5167 50C39.5167 49.116 39.8679 48.2681 40.493 47.643C41.1182 47.0179 41.966 46.6667 42.8501 46.6667C43.7341 46.6667 44.582 47.0179 45.2071 47.643C45.8322 48.2681 46.1834 49.116 46.1834 50V53.3334H42.8501C41.966 53.3334 41.1182 52.9822 40.493 52.357C39.8679 51.7319 39.5167 50.8841 39.5167 50ZM22.8501 56.6667H41.1834V66.6667H22.8501V56.6667Z" fill="white"/>
<path d="M84.5167 38.3333H81.1833V41.6667H84.5167V38.3333Z" fill="white"/>
<path d="M7.85 18.3333H4.51666V21.6667H7.85V18.3333Z" fill="white"/>
<path d="M16.25 5.03334H12.9167V11.7H16.25V5.03334Z" fill="white"/>
</svg>
