<svg width="100" height="100" viewBox="0 0 100 100" fill="none" xmlns="http://www.w3.org/2000/svg">
<path d="M50 0C49.0783 0 48.3333 0.745 48.3333 1.66667V5.03906C24.845 5.90073 5.90398 24.845 5.04232 48.3333H1.66667C0.745 48.3333 0 49.0783 0 50C0 50.9217 0.745 51.6667 1.66667 51.6667H5.04232C5.90398 75.155 24.845 94.096 48.3333 94.9577V98.3333C48.3333 99.255 49.0783 100 50 100C50.9217 100 51.6667 99.255 51.6667 98.3333V94.9577C75.155 94.096 94.096 75.155 94.9577 51.6667H98.3333C99.255 51.6667 100 50.9217 100 50C100 49.0783 99.255 48.3333 98.3333 48.3333H94.9577C94.096 24.845 75.155 5.90073 51.6667 5.03906V1.66667C51.6667 0.745 50.9217 0 50 0ZM48.3333 8.3724V11.6667C48.3333 12.5883 49.0783 13.3333 50 13.3333C50.9217 13.3333 51.6667 12.5883 51.6667 11.6667V8.3724C73.3167 9.23073 90.766 26.6833 91.6244 48.3333H88.3333C87.4117 48.3333 86.6667 49.0783 86.6667 50C86.6667 50.9217 87.4117 51.6667 88.3333 51.6667H91.6244C90.766 73.3167 73.3167 90.766 51.6667 91.6244V88.3333C51.6667 87.4117 50.9217 86.6667 50 86.6667C49.0783 86.6667 48.3333 87.4117 48.3333 88.3333V91.6244C26.6833 90.766 9.23398 73.3167 8.37565 51.6667H11.6667C12.5883 51.6667 13.3333 50.9217 13.3333 50C13.3333 49.0783 12.5883 48.3333 11.6667 48.3333H8.37565C9.23398 26.6833 26.6833 9.23073 48.3333 8.3724ZM50 28.3333C49.0783 28.3333 48.3333 29.0783 48.3333 30V38.4668C43.235 39.2018 39.2018 43.2367 38.4668 48.3333H30C29.0783 48.3333 28.3333 49.0783 28.3333 50C28.3333 50.9217 29.0783 51.6667 30 51.6667H38.4668C39.2018 56.765 43.235 60.7982 48.3333 61.5332V70C48.3333 70.9217 49.0783 71.6667 50 71.6667C50.9217 71.6667 51.6667 70.9217 51.6667 70V61.5332C56.765 60.7982 60.7982 56.7633 61.5332 51.6667H70C70.9217 51.6667 71.6667 50.9217 71.6667 50C71.6667 49.0783 70.9217 48.3333 70 48.3333H61.5332C60.7982 43.235 56.765 39.2018 51.6667 38.4668V30C51.6667 29.0783 50.9217 28.3333 50 28.3333ZM50 41.6667C54.595 41.6667 58.3333 45.405 58.3333 50C58.3333 54.595 54.595 58.3333 50 58.3333C45.405 58.3333 41.6667 54.595 41.6667 50C41.6667 45.405 45.405 41.6667 50 41.6667Z" fill="white"/>
</svg>
